<svg width="20" height="20" viewBox="0 0 20 20" fill="#232429" xmlns="http://www.w3.org/2000/svg">
<path d="M3.28125 1.5H0.71875C0.596875 1.5 0.5 1.59687 0.5 1.71875V4.28125C0.5 4.40313 0.596875 4.5 0.71875 4.5H3.28125C3.40313 4.5 3.5 4.40313 3.5 4.28125V1.71875C3.5 1.59687 3.40313 1.5 3.28125 1.5ZM15.7188 2.25H15.1875H5.6875H5.15625C5.03438 2.25 4.9375 2.34688 4.9375 2.46875V3.53125C4.9375 3.65313 5.03438 3.75 5.15625 3.75H5.6875H15.1875H15.7188C15.8406 3.75 15.9375 3.65313 15.9375 3.53125V2.46875C15.9375 2.34688 15.8406 2.25 15.7188 2.25ZM3.28125 6.5H0.71875C0.596875 6.5 0.5 6.59688 0.5 6.71875V9.28125C0.5 9.40312 0.596875 9.5 0.71875 9.5H3.28125C3.40313 9.5 3.5 9.40312 3.5 9.28125V6.71875C3.5 6.59688 3.40313 6.5 3.28125 6.5ZM15.7188 7.25H15.1875H5.6875H5.15625C5.03438 7.25 4.9375 7.34688 4.9375 7.46875V8.53125C4.9375 8.65312 5.03438 8.75 5.15625 8.75H5.6875H15.1875H15.7188C15.8406 8.75 15.9375 8.65312 15.9375 8.53125V7.46875C15.9375 7.34688 15.8406 7.25 15.7188 7.25ZM3.28125 11.5H0.71875C0.596875 11.5 0.5 11.5969 0.5 11.7188V14.2812C0.5 14.4031 0.596875 14.5 0.71875 14.5H3.28125C3.40313 14.5 3.5 14.4031 3.5 14.2812V11.7188C3.5 11.5969 3.40313 11.5 3.28125 11.5ZM15.7188 12.25H15.1875H5.6875H5.15625C5.03438 12.25 4.9375 12.3469 4.9375 12.4688V13.5312C4.9375 13.6531 5.03438 13.75 5.15625 13.75H5.6875H15.1875H15.7188C15.8406 13.75 15.9375 13.6531 15.9375 13.5312V12.4688C15.9375 12.3469 15.8406 12.25 15.7188 12.25Z" fill="#232429"/>
</svg>
