<svg width="20" height="20" viewBox="0 0 20 20" fill="#232429" xmlns="http://www.w3.org/2000/svg">
<g clip-path="url(#clip0_205_984)">
<path d="M6.91875 0.549988H0.925C0.675 0.549988 0.46875 0.753113 0.46875 1.00624V6.99999C0.46875 7.24999 0.671875 7.45624 0.925 7.45624H6.91875C7.16875 7.45624 7.375 7.25311 7.375 6.99999V1.00311C7.375 0.753113 7.17188 0.549988 6.91875 0.549988Z" fill="#232429"/>
<path d="M15.075 0.549988H9.08125C8.83125 0.549988 8.625 0.753113 8.625 1.00624V6.99999C8.625 7.24999 8.82813 7.45624 9.08125 7.45624H15.075C15.325 7.45624 15.5312 7.25311 15.5312 6.99999V1.00311C15.5281 0.753113 15.325 0.549988 15.075 0.549988Z" fill="#232429"/>
<path d="M6.91875 8.54688H0.925C0.675 8.54688 0.46875 8.75 0.46875 9.00313V14.9969C0.46875 15.2469 0.671875 15.4531 0.925 15.4531H6.91875C7.16875 15.4531 7.375 15.25 7.375 14.9969V9.00313C7.375 8.75 7.17188 8.54688 6.91875 8.54688Z" fill="#232429"/>
<path d="M15.075 8.54688H9.08125C8.83125 8.54688 8.625 8.75 8.625 9.00313V14.9969C8.625 15.2469 8.82813 15.4531 9.08125 15.4531H15.075C15.325 15.4531 15.5312 15.25 15.5312 14.9969V9.00313C15.5281 8.75 15.325 8.54688 15.075 8.54688Z" fill="#232429"/>
</g>
<defs>
<clipPath id="clip0_205_984">
<rect width="20" height="20" fill="white"/>
</clipPath>
</defs>
</svg>
